<svg width="212" height="73" viewBox="0 0 212 73" fill="none" xmlns="http://www.w3.org/2000/svg">
<g style="mix-blend-mode:screen">
<circle cx="28.1768" cy="23.5532" r="19.6183" transform="rotate(11.1926 28.1768 23.5532)" fill="#5957E9"/>
</g>
<g style="mix-blend-mode:screen">
<circle cx="51.4393" cy="41.9735" r="19.6183" transform="rotate(11.1926 51.4393 41.9735)" fill="#F87171"/>
</g>
<g style="mix-blend-mode:screen">
<circle cx="23.0532" cy="49.4467" r="19.6183" transform="rotate(11.1926 23.0532 49.4467)" fill="#EC4899"/>
</g>
<path d="M95.0368 47.5H86.1732V22.4964H95.11C97.625 22.4964 99.7901 22.9969 101.605 23.998C103.42 24.991 104.816 26.4195 105.793 28.2833C106.778 30.1472 107.27 32.3774 107.27 34.9738C107.27 37.5783 106.778 39.8166 105.793 41.6886C104.816 43.5606 103.412 44.9972 101.581 45.9983C99.7575 46.9994 97.5762 47.5 95.0368 47.5ZM91.4596 42.9705H94.817C96.3797 42.9705 97.6942 42.6938 98.7604 42.1403C99.8348 41.5787 100.641 40.7119 101.178 39.5399C101.723 38.3597 101.996 36.8376 101.996 34.9738C101.996 33.1262 101.723 31.6163 101.178 30.4443C100.641 29.2723 99.8389 28.4095 98.7727 27.856C97.7064 27.3026 96.3919 27.0258 94.8292 27.0258H91.4596V42.9705ZM111.186 47.5V22.4964H128.034V26.8549H116.472V32.8128H127.167V37.1713H116.472V43.1415H128.083V47.5H111.186ZM145.801 29.6873C145.703 28.7025 145.284 27.9374 144.543 27.3921C143.803 26.8468 142.798 26.5741 141.528 26.5741C140.665 26.5741 139.937 26.6962 139.343 26.9404C138.748 27.1764 138.293 27.506 137.975 27.9293C137.666 28.3525 137.511 28.8327 137.511 29.3699C137.495 29.8176 137.589 30.2083 137.792 30.542C138.004 30.8757 138.293 31.1646 138.659 31.4088C139.025 31.6448 139.448 31.8524 139.929 32.0314C140.409 32.2024 140.922 32.3489 141.467 32.471L143.713 33.0081C144.804 33.2523 145.805 33.5779 146.717 33.9848C147.628 34.3918 148.418 34.8924 149.085 35.4865C149.753 36.0807 150.269 36.7807 150.636 37.5864C151.01 38.3922 151.201 39.316 151.209 40.3578C151.201 41.888 150.811 43.2147 150.037 44.3379C149.272 45.453 148.165 46.3198 146.717 46.9384C145.276 47.5488 143.538 47.8541 141.503 47.8541C139.485 47.8541 137.727 47.5448 136.229 46.9262C134.74 46.3076 133.576 45.3919 132.738 44.1792C131.907 42.9583 131.472 41.4485 131.431 39.6497H136.547C136.604 40.4881 136.844 41.188 137.267 41.7497C137.698 42.3031 138.272 42.7223 138.988 43.0072C139.713 43.2839 140.531 43.4223 141.442 43.4223C142.338 43.4223 143.115 43.292 143.774 43.0316C144.442 42.7711 144.959 42.4089 145.325 41.945C145.691 41.4811 145.874 40.9479 145.874 40.3456C145.874 39.784 145.707 39.312 145.374 38.9294C145.048 38.5469 144.568 38.2213 143.933 37.9527C143.306 37.6841 142.537 37.4399 141.626 37.2202L138.903 36.5365C136.795 36.0237 135.13 35.222 133.91 34.1314C132.689 33.0407 132.082 31.5716 132.09 29.724C132.082 28.2101 132.485 26.8875 133.299 25.7561C134.121 24.6248 135.249 23.7417 136.681 23.1068C138.114 22.4719 139.741 22.1545 141.565 22.1545C143.42 22.1545 145.04 22.4719 146.424 23.1068C147.815 23.7417 148.898 24.6248 149.671 25.7561C150.444 26.8875 150.843 28.1979 150.868 29.6873H145.801ZM160.052 22.4964V47.5H154.765V22.4964H160.052ZM180.981 30.5786C180.81 29.9844 180.57 29.4595 180.26 29.0037C179.951 28.5397 179.573 28.149 179.125 27.8316C178.685 27.506 178.181 27.2578 177.611 27.0869C177.049 26.916 176.427 26.8305 175.743 26.8305C174.465 26.8305 173.342 27.1479 172.373 27.7828C171.413 28.4176 170.664 29.3414 170.127 30.5542C169.59 31.7588 169.321 33.232 169.321 34.9738C169.321 36.7156 169.586 38.1969 170.115 39.4178C170.644 40.6387 171.393 41.5706 172.361 42.2136C173.33 42.8484 174.473 43.1659 175.792 43.1659C176.988 43.1659 178.01 42.9543 178.856 42.531C179.711 42.0996 180.362 41.4933 180.81 40.7119C181.266 39.9305 181.493 39.0067 181.493 37.9405L182.568 38.0992H176.122V34.1191H186.585V37.269C186.585 39.4666 186.121 41.3549 185.193 42.9339C184.265 44.5048 182.987 45.7175 181.359 46.5721C179.731 47.4186 177.867 47.8418 175.768 47.8418C173.423 47.8418 171.364 47.325 169.59 46.2913C167.815 45.2495 166.432 43.7722 165.439 41.8595C164.454 39.9387 163.962 37.6597 163.962 35.0226C163.962 32.9959 164.255 31.189 164.841 29.6019C165.435 28.0066 166.265 26.6555 167.331 25.5486C168.397 24.4416 169.639 23.5992 171.055 23.0213C172.471 22.4435 174.005 22.1545 175.658 22.1545C177.074 22.1545 178.392 22.3621 179.613 22.7772C180.834 23.1841 181.917 23.762 182.861 24.5108C183.813 25.2596 184.59 26.1509 185.193 27.1845C185.795 28.2101 186.182 29.3414 186.353 30.5786H180.981ZM211.469 22.4964V47.5H206.903L196.025 31.7628H195.842V47.5H190.555V22.4964H195.195L205.987 38.2213H206.207V22.4964H211.469Z" fill="url(#paint0_linear_6_44)"/>
<defs>
<linearGradient id="paint0_linear_6_44" x1="105.328" y1="17.1094" x2="122.418" y2="85.3321" gradientUnits="userSpaceOnUse">
<stop offset="0.249198" stop-color="#EC4899"/>
<stop offset="0.773712" stop-color="#F87171"/>
</linearGradient>
</defs>
</svg>
